<svg id="Layer_2" data-name="Layer 2" xmlns="http://www.w3.org/2000/svg" width="256.001" height="50.077" viewBox="0 0 256.001 50.077">
  <g id="Layer_1" data-name="Layer 1">
    <path id="Path_1" data-name="Path 1" d="M8.588,63.469A17.6,17.6,0,0,1,3,61.068L5.8,54.8a18.087,18.087,0,0,0,4.686,2.145,17.817,17.817,0,0,0,5.236.814q4.881,0,4.881-2.444a2.027,2.027,0,0,0-1.4-1.91,25.771,25.771,0,0,0-4.481-1.3A42.767,42.767,0,0,1,9.059,50.54a9.548,9.548,0,0,1-3.905-2.682,7.259,7.259,0,0,1-1.627-4.979,8.617,8.617,0,0,1,1.5-4.963,10.058,10.058,0,0,1,4.481-3.5,18.575,18.575,0,0,1,7.316-1.3,25.859,25.859,0,0,1,5.835.651,18.042,18.042,0,0,1,5.073,1.979l-2.6,6.31a17.487,17.487,0,0,0-8.321-2.317,7,7,0,0,0-3.69.748,2.249,2.249,0,0,0-1.159,1.953,1.934,1.934,0,0,0,1.373,1.8,24.524,24.524,0,0,0,4.419,1.243,41.449,41.449,0,0,1,5.662,1.585,9.812,9.812,0,0,1,3.905,2.659,7.087,7.087,0,0,1,1.653,4.956,8.461,8.461,0,0,1-1.5,4.881,10.271,10.271,0,0,1-4.507,3.5,18.08,18.08,0,0,1-7.293,1.3,27.863,27.863,0,0,1-7.085-.9Z" transform="translate(-2.024 -22.342)" fill="#f8f8f8"/>
    <path id="Path_2" data-name="Path 2" d="M133.334,41.76,124.306,69.6h-8.432l-5.327-16.942L104.979,69.6H96.547L87.52,41.76h8.113l5.607,17.778,5.887-17.778h7.234l5.607,17.934,5.858-17.934Z" transform="translate(-59.039 -28.17)" fill="#f8f8f8"/>
    <path id="Path_3" data-name="Path 3" d="M250.263,65.022H238.648l-2.161,5.337H228.56L240.689,42.89h7.651l12.168,27.469H252.42Zm-2.278-5.731-3.534-8.787-3.531,8.787Z" transform="translate(-154.18 -28.932)" fill="#f8f8f8"/>
    <path id="Path_4" data-name="Path 4" d="M348.611,55.857h6.779V67.087a17.632,17.632,0,0,1-5.344,2.555,21.312,21.312,0,0,1-6.046.9,16.148,16.148,0,0,1-7.667-1.8,13.423,13.423,0,0,1-5.35-5.031,14.635,14.635,0,0,1,0-14.55,13.368,13.368,0,0,1,5.383-5.015,16.548,16.548,0,0,1,7.784-1.8,17.329,17.329,0,0,1,6.814,1.276,13.177,13.177,0,0,1,5.044,3.681l-4.881,4.413a8.593,8.593,0,0,0-6.58-3.02A7.639,7.639,0,0,0,338.93,50.8a7.561,7.561,0,0,0-2.128,5.636,8.188,8.188,0,0,0,.976,4.006,6.951,6.951,0,0,0,2.711,2.75,7.963,7.963,0,0,0,3.99.976,9.818,9.818,0,0,0,4.143-.888Z" transform="translate(-221.964 -28.563)" fill="#f8f8f8"/>
    <path id="Path_5" data-name="Path 5" d="M424.184,69.725a15.722,15.722,0,0,1-5.034-2.171l2.519-5.653a17.22,17.22,0,0,0,8.953,2.672q4.419,0,4.416-2.206a1.825,1.825,0,0,0-1.259-1.722,23.174,23.174,0,0,0-4.045-1.181,38.421,38.421,0,0,1-5.112-1.416,8.582,8.582,0,0,1-3.524-2.418,6.535,6.535,0,0,1-1.471-4.491,7.778,7.778,0,0,1,1.357-4.475,9.043,9.043,0,0,1,4.045-3.153,16.671,16.671,0,0,1,6.6-1.162,23.291,23.291,0,0,1,5.265.6,16.161,16.161,0,0,1,4.556,1.761L439.089,50.4a15.789,15.789,0,0,0-7.511-2.089,6.338,6.338,0,0,0-3.332.677,2.037,2.037,0,0,0-1.045,1.764,1.749,1.749,0,0,0,1.24,1.627,22.43,22.43,0,0,0,4,1.119,37.3,37.3,0,0,1,5.119,1.429,8.861,8.861,0,0,1,3.524,2.4,6.446,6.446,0,0,1,1.49,4.475,7.615,7.615,0,0,1-1.347,4.4,9.2,9.2,0,0,1-4.065,3.157,16.656,16.656,0,0,1-6.593,1.191,25.16,25.16,0,0,1-6.394-.825Z" transform="translate(-282.747 -28.568)" fill="#f8f8f8"/>
    <path id="Path_6" data-name="Path 6" d="M528.215,42.89V70.359h-7.771V59.646h-10.58V70.359H502.08V42.89h7.784V53.209h10.6V42.89Z" transform="translate(-338.689 -28.932)" fill="#f8f8f8"/>
    <path id="Path_7" data-name="Path 7" d="M602.527,67.132a14.317,14.317,0,0,1,0-25.214,17.785,17.785,0,0,1,15.868,0,14.312,14.312,0,0,1,0,25.214,17.785,17.785,0,0,1-15.868,0Zm11.751-5.646a7.127,7.127,0,0,0,2.7-2.805,9.169,9.169,0,0,0,0-8.311,7.117,7.117,0,0,0-2.7-2.8,7.81,7.81,0,0,0-7.635,0,7.159,7.159,0,0,0-2.7,2.8,9.2,9.2,0,0,0,0,8.311,7.159,7.159,0,0,0,2.7,2.805A7.836,7.836,0,0,0,614.278,61.486Z" transform="translate(-401.367 -27.017)" fill="#f8f8f8"/>
    <path id="Path_8" data-name="Path 8" d="M724.251,36.354a10.179,10.179,0,0,1,6.264,9.763,10.087,10.087,0,0,1-6.264,9.711,17.092,17.092,0,0,1-7.081,1.351h-5.233v7.859h-8.5V35h13.73A17.112,17.112,0,0,1,724.251,36.354ZM720.6,49.371a4.056,4.056,0,0,0,1.331-3.254,4.029,4.029,0,0,0-1.331-3.254,5.831,5.831,0,0,0-3.947-1.159h-4.719V50.49h4.719a5.942,5.942,0,0,0,3.947-1.136Z" transform="translate(-474.521 -23.61)" fill="#f8f8f8"/>
    <path id="Path_9" data-name="Path 9" d="M388,10.205l-3.3-1.757-3.319,1.722.651-3.681L379.37,3.863l3.7-.517L384.743,0l1.64,3.362,3.7.556-2.691,2.6Z" transform="translate(-255.913)" fill="#f8f8f8"/>
    <path id="Path_10" data-name="Path 10" d="M356.511,18.828l-1.982-1.058-2,1.038.394-2.216-1.6-1.578,2.229-.312,1-2.011.986,2.024,2.226.332-1.621,1.562Z" transform="translate(-236.991 -8.56)" fill="#f8f8f8"/>
    <path id="Path_11" data-name="Path 11" d="M425.724,18.828l-1.985-1.058-2,1.038.394-2.216-1.6-1.578,2.229-.312,1.006-2.011.983,2.024,2.226.332-1.621,1.562Z" transform="translate(-283.678 -8.56)" fill="#f8f8f8"/>
    <path id="Path_12" data-name="Path 12" d="M89.021,15.675C39.23,15.675.436,12.456,0,12.421L.046,11.9c.495.042,50.253,4.172,109.425,3.069v.524C102.51,15.616,95.676,15.675,89.021,15.675Z" transform="translate(0 -8.027)" fill="#f8f8f8"/>
    <path id="Path_13" data-name="Path 13" d="M469.78,15.668c-6.648,0-13.486-.059-20.46-.185v-.524c59.169,1.1,108.934-3.026,109.428-3.069l.042.521C558.364,12.45,519.56,15.668,469.78,15.668Z" transform="translate(-303.099 -8.021)" fill="#f8f8f8"/>
    <path id="Path_14" data-name="Path 14" d="M.046,146.051,0,145.531c.495-.042,50.285-4.172,109.48-3.069v.524C50.3,141.883.54,146.009.046,146.051Z" transform="translate(0 -95.975)" fill="#f8f8f8"/>
    <path id="Path_15" data-name="Path 15" d="M558.778,146.051c-.495-.042-50.262-4.169-109.428-3.066v-.524c59.2-1.1,108.986,3.026,109.48,3.069Z" transform="translate(-303.119 -95.975)" fill="#f8f8f8"/>
    <path id="Path_16" data-name="Path 16" d="M370.2,141.388v.651H367.85V139.11h2.3v.651H368.67v.495h1.3v.618h-1.3v.537Z" transform="translate(-248.141 -93.84)" fill="#f8f8f8"/>
    <path id="Path_17" data-name="Path 17" d="M376.4,141.86a1.719,1.719,0,0,1-.543-.234l.273-.612a1.884,1.884,0,0,0,.976.29c.325,0,.475-.081.475-.241a.192.192,0,0,0-.133-.185,2.452,2.452,0,0,0-.439-.127,4.3,4.3,0,0,1-.553-.153.957.957,0,0,1-.381-.264.706.706,0,0,1-.156-.485.856.856,0,0,1,.143-.482.977.977,0,0,1,.439-.342,1.78,1.78,0,0,1,.713-.127,2.568,2.568,0,0,1,.57.065,1.781,1.781,0,0,1,.495.192l-.254.615a1.689,1.689,0,0,0-.814-.228.68.68,0,0,0-.361.075.215.215,0,0,0-.111.189.185.185,0,0,0,.133.176,2.35,2.35,0,0,0,.43.124,3.661,3.661,0,0,1,.556.153.944.944,0,0,1,.381.257.7.7,0,0,1,.159.485.83.83,0,0,1-.146.478,1.009,1.009,0,0,1-.439.325,1.731,1.731,0,0,1-.713.13,2.727,2.727,0,0,1-.7-.075Z" transform="translate(-253.545 -93.697)" fill="#f8f8f8"/>
    <path id="Path_18" data-name="Path 18" d="M384.738,139.741h-.9v-.651h2.623v.651h-.895v2.278h-.83Z" transform="translate(-258.928 -93.826)" fill="#f8f8f8"/>
    <path id="Path_19" data-name="Path 19" d="M392,146.106a.485.485,0,0,1,0-.677.472.472,0,0,1,.342-.13.462.462,0,0,1,.342.13.439.439,0,0,1,.133.325.449.449,0,0,1-.133.325.5.5,0,0,1-.68,0Z" transform="translate(-264.343 -98.015)" fill="#f8f8f8"/>
    <path id="Path_20" data-name="Path 20" d="M397.648,141.209v.651H395.37v-.521l1.1-1.025a1.18,1.18,0,0,0,.215-.257.476.476,0,0,0,.052-.215.287.287,0,0,0-.094-.225.446.446,0,0,0-.283-.078.605.605,0,0,0-.3.075.582.582,0,0,0-.224.212l-.615-.345a1.214,1.214,0,0,1,.482-.449,1.558,1.558,0,0,1,.732-.163,1.478,1.478,0,0,1,.592.111.918.918,0,0,1,.4.325.787.787,0,0,1,.146.472,1.012,1.012,0,0,1-.1.449,1.711,1.711,0,0,1-.4.482l-.55.511Z" transform="translate(-266.605 -93.677)" fill="#f8f8f8"/>
    <path id="Path_21" data-name="Path 21" d="M404.039,141.777a1.191,1.191,0,0,1-.459-.524,2.1,2.1,0,0,1,0-1.627,1.191,1.191,0,0,1,.459-.524,1.256,1.256,0,0,1,.67-.182,1.24,1.24,0,0,1,.651.182,1.191,1.191,0,0,1,.459.524,2.1,2.1,0,0,1,0,1.627,1.191,1.191,0,0,1-.459.524,1.24,1.24,0,0,1-.651.182A1.256,1.256,0,0,1,404.039,141.777Zm1-.7a1.775,1.775,0,0,0,0-1.3.368.368,0,0,0-.325-.2.378.378,0,0,0-.325.2,1.775,1.775,0,0,0,0,1.3.384.384,0,0,0,.325.2.374.374,0,0,0,.325-.2Z" transform="translate(-272.134 -93.711)" fill="#f8f8f8"/>
    <path id="Path_22" data-name="Path 22" d="M413.153,139.07V142h-.83v-2.278h-.543v-.651Z" transform="translate(-277.775 -93.813)" fill="#f8f8f8"/>
    <path id="Path_23" data-name="Path 23" d="M419.115,140.388a.849.849,0,0,1,.3.67.934.934,0,0,1-.143.5.95.95,0,0,1-.426.364,1.627,1.627,0,0,1-.709.137,2.444,2.444,0,0,1-.612-.078,1.726,1.726,0,0,1-.521-.212l.3-.625a1.459,1.459,0,0,0,.387.182,1.588,1.588,0,0,0,.426.062.612.612,0,0,0,.325-.081.254.254,0,0,0,.13-.228.241.241,0,0,0-.127-.221.9.9,0,0,0-.443-.078h-.8l.146-1.712h1.868v.651h-1.181l-.036.426h.2A1.4,1.4,0,0,1,419.115,140.388Z" transform="translate(-281.297 -93.813)" fill="#f8f8f8"/>
  </g>
</svg>
